<svg height="512pt" viewBox="0 -40 512 512" width="512pt" xmlns="http://www.w3.org/2000/svg"><path d="m456.832031 0h-401.664062c-30.421875 0-55.167969 24.746094-55.167969 55.167969v321.332031c0 30.421875 24.746094 55.167969 55.167969 55.167969h401.664062c30.421875 0 55.167969-24.746094 55.167969-55.167969v-321.332031c0-30.421875-24.746094-55.167969-55.167969-55.167969zm25.167969 376.5c0 13.878906-11.289062 25.167969-25.167969 25.167969h-401.664062c-13.878907 0-25.167969-11.289063-25.167969-25.167969v-321.332031c0-13.878907 11.289062-25.167969 25.167969-25.167969h401.664062c13.878907 0 25.167969 11.289062 25.167969 25.167969zm0 0"/><path d="m416.667969 80.335938h-321.335938c-8.28125 0-15 6.714843-15 15 0 8.28125 6.71875 15 15 15h321.335938c8.28125 0 15-6.71875 15-15 0-8.285157-6.71875-15-15-15zm0 0"/><path d="m111.398438 160.667969c-8.28125 0-15 6.714843-15 15v160.667969c0 8.28125 6.71875 15 15 15 8.285156 0 15-6.71875 15-15v-160.667969c0-8.285157-6.714844-15-15-15zm0 0"/><path d="m256 160.667969c-8.285156 0-15 6.714843-15 15v160.667969c0 8.28125 6.714844 15 15 15s15-6.71875 15-15v-160.667969c0-8.285157-6.714844-15-15-15zm0 0"/><path d="m400.601562 160.667969c-8.285156 0-15 6.714843-15 15v160.667969c0 8.28125 6.714844 15 15 15 8.28125 0 15-6.71875 15-15v-160.667969c0-8.285157-6.71875-15-15-15zm0 0"/><path d="m191.734375 160.667969h-16.066406c-8.285157 0-15 6.714843-15 15v160.667969c0 8.28125 6.714843 15 15 15h16.066406c8.28125 0 15-6.71875 15-15v-160.667969c0-8.285157-6.714844-15-15-15zm0 0"/><path d="m336.332031 160.667969h-16.066406c-8.28125 0-15 6.714843-15 15v160.667969c0 8.28125 6.71875 15 15 15h16.066406c8.285157 0 15-6.71875 15-15v-160.667969c0-8.285157-6.714843-15-15-15zm0 0"/></svg>