<?xml version="1.0" encoding="iso-8859-1"?>
<!-- Generator: Adobe Illustrator 19.0.0, SVG Export Plug-In . SVG Version: 6.00 Build 0)  -->
<svg version="1.1" id="Capa_1" xmlns="http://www.w3.org/2000/svg" xmlns:xlink="http://www.w3.org/1999/xlink" x="0px" y="0px"
	 viewBox="0 0 512 512" style="enable-background:new 0 0 512 512;" xml:space="preserve">
<g>
	<g>
		<path d="M511.712,110.592c-0.096-1.088-0.32-2.112-0.64-3.168c-0.32-1.056-0.704-2.016-1.216-2.976
			c-0.224-0.416-0.256-0.928-0.544-1.344l-64-96C442.336,2.688,437.344,0,432,0H80c-5.344,0-10.336,2.688-13.312,7.136l-64,96
			c-0.288,0.416-0.32,0.896-0.544,1.344c-0.512,0.96-0.896,1.92-1.216,2.976c-0.32,1.056-0.544,2.08-0.64,3.168
			C0.224,111.072,0,111.488,0,112v368c0,17.664,14.368,32,32,32h448c17.632,0,32-14.336,32-32V112
			C512,111.488,511.776,111.072,511.712,110.592z M423.424,32l42.688,64H317.568L306.88,32H423.424z M237.536,32h36.896l10.688,64
			h-58.24L237.536,32z M224,128h64v57.824l-26.944-9.024c-3.296-1.056-6.848-1.056-10.112,0L224,185.824V128z M88.576,32H205.12
			l-10.688,64H45.888L88.576,32z M480,496v-16H32V128h160v80c0,5.152,2.464,9.984,6.656,12.96c4.16,3.04,9.504,3.744,14.4,2.24
			L256,208.864l42.944,14.304c1.664,0.544,3.36,0.832,5.056,0.832c3.328,0,6.592-1.024,9.344-3.04
			c4.192-2.976,6.656-7.808,6.656-12.96v-80h160v352c0,0,0,0,0.032,0L480,496z"/>
	</g>
</g>
<g>
	<g>
		<path d="M176,352H80c-8.832,0-16,7.168-16,16c0,8.832,7.168,16,16,16h96c8.832,0,16-7.168,16-16C192,359.168,184.832,352,176,352z
			"/>
	</g>
</g>
<g>
	<g>
		<path d="M128,416H80c-8.832,0-16,7.168-16,16c0,8.832,7.168,16,16,16h48c8.832,0,16-7.168,16-16C144,423.168,136.832,416,128,416z
			"/>
	</g>
</g>
<g>
</g>
<g>
</g>
<g>
</g>
<g>
</g>
<g>
</g>
<g>
</g>
<g>
</g>
<g>
</g>
<g>
</g>
<g>
</g>
<g>
</g>
<g>
</g>
<g>
</g>
<g>
</g>
<g>
</g>
</svg>
